<?xml version="1.0" encoding="iso-8859-1"?>
<!-- Generator: Adobe Illustrator 18.0.0, SVG Export Plug-In . SVG Version: 6.00 Build 0)  -->
<!DOCTYPE svg PUBLIC "-//W3C//DTD SVG 1.1//EN" "http://www.w3.org/Graphics/SVG/1.1/DTD/svg11.dtd">
<svg version="1.1" id="Capa_1" xmlns="http://www.w3.org/2000/svg" xmlns:xlink="http://www.w3.org/1999/xlink" x="0px" y="0px"
	 viewBox="0 0 496.18 496.18" style="enable-background:new 0 0 496.18 496.18;" xml:space="preserve">
<g>
	<path d="M382.178,195.11c-0.922,0-1.787,0.115-2.694,0.129c-13.119-69.55-74.093-122.193-147.447-122.193
		c-82.945,0-150.157,67.217-150.157,150.156c0,12.654,1.743,24.873,4.678,36.605c-1.583-0.096-3.065-0.465-4.678-0.465
		C36.65,259.343,0,295.991,0,341.235c0,43.391,32.801,79.059,75.465,81.898h306.713c62.975,0,114.002-51.063,114.002-114.021
		C496.18,246.142,445.152,195.11,382.178,195.11z M254.955,352.226c0,12.4-10.039,22.441-22.434,22.441
		c-12.414,0-22.454-10.041-22.454-22.455v-9.365h44.888V352.226z M279.748,253.698c-11.559,17.281-19.279,36.475-22.811,56.98
		l-1.642,9.59h-45.483l-1.648-9.59c-3.494-20.346-11.347-39.844-22.823-56.996c-10.601-15.859-17.081-35.377-17.081-52.223
		c0-35.51,28.769-64.313,64.292-64.313c35.509,0,64.298,28.803,64.298,64.313C296.85,218.306,290.369,237.839,279.748,253.698z"/>
</g>
<g>
</g>
<g>
</g>
<g>
</g>
<g>
</g>
<g>
</g>
<g>
</g>
<g>
</g>
<g>
</g>
<g>
</g>
<g>
</g>
<g>
</g>
<g>
</g>
<g>
</g>
<g>
</g>
<g>
</g>
</svg>
