<?xml version="1.0" encoding="iso-8859-1"?>
<!-- Generator: Adobe Illustrator 18.0.0, SVG Export Plug-In . SVG Version: 6.00 Build 0)  -->
<!DOCTYPE svg PUBLIC "-//W3C//DTD SVG 1.1//EN" "http://www.w3.org/Graphics/SVG/1.1/DTD/svg11.dtd">
<svg version="1.1" id="Capa_1" xmlns="http://www.w3.org/2000/svg" xmlns:xlink="http://www.w3.org/1999/xlink" x="0px" y="0px"
	 viewBox="0 0 498.556 498.556" style="enable-background:new 0 0 498.556 498.556;" xml:space="preserve">
<g>
	<path d="M387.168,133.853C366.715,67.746,305.196,21.429,234.613,21.429c-88.131,0-159.806,71.685-159.806,159.8
		c0,4.265,0.18,8.571,0.57,12.9C32.255,204.16,0,242.909,0,289.054c0,51.25,39.56,94.036,91.585,97.435h89.211v-45.223
		l-87.707,0.016c-27.27-1.811-47.821-24.26-47.821-52.229c0-28.784,18.732-51.805,55.061-51.805c7.317,0,14.188-2.576,18.803-8.129
		c4.601-5.554,6.279-12.966,4.535-19.971c-2.396-9.491-3.605-18.877-3.605-27.921c0-63.163,51.373-114.544,114.553-114.544
		c54.98,0,102.273,39.198,112.468,93.196c2.053,10.96,10.794,18.298,24.691,18.298c44.603,0,81.526,36.581,81.526,81.536
		c0,44.946-36.563,81.519-81.526,81.519h-14.47v45.256h14.47c69.914,0,126.784-56.867,126.784-126.774
		C498.556,195.01,449.838,141.469,387.168,133.853z"/>
	<path d="M370.256,311.226c2.46-5.92,1.092-12.736-3.444-17.264l-86.566-86.564c-2.965-2.97-6.978-4.649-11.188-4.649
		c-4.209,0-8.233,1.68-11.204,4.649l-86.551,86.564c-4.535,4.527-5.903,11.344-3.438,17.264c2.215,5.382,7.239,8.904,12.931,9.516
		c0.587,0.074,27.173,0.262,27.173,0.262V461.29c0,8.75,7.076,15.836,15.831,15.836h90.516c8.76,0,15.837-7.086,15.837-15.836
		V321.003c0,0,26.58-0.188,27.149-0.262C362.994,320.13,368.018,316.6,370.256,311.226z"/>
</g>
<g>
</g>
<g>
</g>
<g>
</g>
<g>
</g>
<g>
</g>
<g>
</g>
<g>
</g>
<g>
</g>
<g>
</g>
<g>
</g>
<g>
</g>
<g>
</g>
<g>
</g>
<g>
</g>
<g>
</g>
</svg>
