<?xml version="1.0" encoding="iso-8859-1"?>
<!-- Generator: Adobe Illustrator 18.0.0, SVG Export Plug-In . SVG Version: 6.00 Build 0)  -->
<!DOCTYPE svg PUBLIC "-//W3C//DTD SVG 1.1//EN" "http://www.w3.org/Graphics/SVG/1.1/DTD/svg11.dtd">
<svg version="1.1" id="Capa_1" xmlns="http://www.w3.org/2000/svg" xmlns:xlink="http://www.w3.org/1999/xlink" x="0px" y="0px"
	 viewBox="0 0 497.603 497.603" style="enable-background:new 0 0 497.603 497.603;" xml:space="preserve">
<path d="M448.537,199.721c-17.977,0-33.525,9.768-42.065,24.199h-76.262c-2.914-9.444-7.236-18.176-13.004-25.931l74.203-74.208
	c11.162,4.373,24.326,2.075,33.318-6.93c12.148-12.132,12.148-31.829,0.016-43.979c-12.148-12.147-31.846-12.147-43.994,0
	c-9.006,9.003-11.307,22.172-6.934,33.336l-74.188,74.202c-7.756-5.782-16.486-10.105-25.947-13.004V91.127
	c14.418-8.535,24.201-24.085,24.201-42.065c0-27.102-21.967-49.062-49.082-49.062c-27.113,0-49.08,21.96-49.08,49.062
	c0,17.979,9.783,33.529,24.201,42.085v76.261c-9.445,2.898-18.172,7.222-25.932,12.989l-74.203-74.188
	c4.373-11.164,2.072-24.333-6.936-33.336c-12.146-12.147-31.844-12.147-43.977,0c-12.148,12.149-12.133,31.847,0,43.979
	c9.008,9.022,22.178,11.303,33.318,6.95l74.203,74.188c-5.783,7.74-10.105,16.486-13.004,25.931H91.131
	c-8.539-14.432-24.088-24.199-42.064-24.199C21.967,199.721,0,221.687,0,248.802c0,27.113,21.967,49.08,49.066,49.08
	c17.977,0,33.525-9.768,42.064-24.199h76.262c2.898,9.439,7.221,18.185,13.004,25.945l-74.168,74.189
	c-11.176-4.375-24.332-2.089-33.338,6.934c-12.148,12.134-12.148,31.829-0.016,43.979c12.148,12.147,31.859,12.129,43.977,0
	c9.023-9.007,11.309-22.178,6.951-33.32l74.188-74.188c7.76,5.768,16.486,10.091,25.932,12.989v76.246
	c-14.418,8.551-24.201,24.101-24.201,42.08c0,27.1,21.967,49.066,49.08,49.066c27.115,0,49.082-21.967,49.082-49.066
	c0-17.979-9.783-33.529-24.201-42.065V330.21c9.461-2.898,18.191-7.221,25.947-13.004l74.188,74.182
	c-4.373,11.163-2.072,24.334,6.934,33.341c12.148,12.147,31.846,12.147,43.978,0c12.148-12.149,12.133-31.845,0-43.979
	c-9.008-9.022-22.178-11.309-33.318-6.948l-74.203-74.188c5.783-7.745,10.09-16.491,13.004-25.931h76.262
	c8.539,14.432,24.088,24.199,42.065,24.199c27.1,0,49.066-21.967,49.066-49.08C497.603,221.687,475.637,199.721,448.537,199.721z
	 M248.801,301.169c-28.865,0-52.352-23.486-52.352-52.367c0-28.865,23.486-52.352,52.352-52.352
	c28.865,0,52.352,23.486,52.352,52.352C301.152,277.683,277.666,301.169,248.801,301.169z"/>
<g>
</g>
<g>
</g>
<g>
</g>
<g>
</g>
<g>
</g>
<g>
</g>
<g>
</g>
<g>
</g>
<g>
</g>
<g>
</g>
<g>
</g>
<g>
</g>
<g>
</g>
<g>
</g>
<g>
</g>
</svg>
