<?xml version="1.0" encoding="iso-8859-1"?>
<!-- Generator: Adobe Illustrator 18.0.0, SVG Export Plug-In . SVG Version: 6.00 Build 0)  -->
<!DOCTYPE svg PUBLIC "-//W3C//DTD SVG 1.1//EN" "http://www.w3.org/Graphics/SVG/1.1/DTD/svg11.dtd">
<svg version="1.1" id="Capa_1" xmlns="http://www.w3.org/2000/svg" xmlns:xlink="http://www.w3.org/1999/xlink" x="0px" y="0px"
	 viewBox="0 0 495.167 495.167" style="enable-background:new 0 0 495.167 495.167;" xml:space="preserve">
<g>
	<path d="M288.647,281.468c5.239-9.065,13.689-15.545,23.797-18.253c3.316-0.888,6.735-1.339,10.148-1.339
		c4.805,0,9.577,0.887,14.043,2.603c2.947-18.714,19.195-33.06,38.719-33.06h35.072c19.518,0,35.766,14.354,38.719,33.06
		c4.46-1.709,9.232-2.595,14.02-2.595c0.661,0,1.273,0.226,1.917,0.258c0.515-4.256,0.869-8.567,0.869-12.959
		c0-59.132-47.935-107.06-107.055-107.06c-0.87,0-1.696,0.104-2.55,0.129c-12.314-65.313-69.566-114.74-138.441-114.74
		c-77.871,0-141.007,63.12-141.007,140.997c0,11.88,1.632,23.356,4.401,34.373c-1.481-0.089-2.898-0.443-4.401-0.443
		C34.429,202.44,0,236.861,0,279.349c0,40.733,30.817,74.234,70.887,76.895h204.352c-3.58-4.305-6.543-9.076-8.041-14.645
		c-2.727-10.115-1.326-20.68,3.913-29.746L288.647,281.468z"/>
	<path d="M487.939,379.865l-13.248-7.648c0.418-3.417,1.031-6.77,1.031-10.3c0-3.53-0.613-6.891-1.031-10.308l13.248-7.648
		c3.322-1.918,5.738-5.068,6.742-8.768c0.981-3.7,0.467-7.641-1.455-10.961l-17.537-30.367c-2.673-4.635-7.541-7.221-12.523-7.221
		c-2.447,0-4.933,0.619-7.203,1.934l-13.172,7.6c-5.529-4.207-11.429-7.954-17.924-10.678V270.62c0-7.979-6.463-14.441-14.44-14.441
		h-35.072c-7.982,0-14.445,6.463-14.445,14.441v14.879c-6.494,2.724-12.395,6.471-17.907,10.678l-13.184-7.607
		c-2.227-1.282-4.707-1.935-7.226-1.935c-1.255,0-2.511,0.161-3.734,0.491c-3.71,0.992-6.85,3.41-8.771,6.73l-17.537,30.375
		c-3.998,6.906-1.609,15.74,5.288,19.729l13.247,7.648c-0.418,3.417-1.03,6.777-1.03,10.308c0,3.53,0.612,6.883,1.03,10.292
		l-13.247,7.648c-6.897,3.99-9.286,12.822-5.288,19.729l17.537,30.383c1.922,3.321,5.061,5.737,8.771,6.729
		c1.224,0.33,2.479,0.492,3.734,0.492c2.519,0,4.998-0.654,7.226-1.935l13.167-7.608c5.529,4.216,11.43,7.963,17.924,10.687v14.878
		c0,7.978,6.463,14.441,14.445,14.441h35.072c7.977,0,14.44-6.463,14.44-14.441v-14.878c6.495-2.724,12.395-6.471,17.924-10.687
		l13.172,7.608c2.223,1.28,4.708,1.935,7.221,1.935c1.256,0,2.512-0.162,3.74-0.492c3.703-0.992,6.85-3.408,8.766-6.729
		l17.537-30.375C497.224,392.687,494.841,383.855,487.939,379.865z M392.89,415.189c-29.383,0-53.274-23.897-53.274-53.272
		c0-29.376,23.892-53.272,53.274-53.272c29.385,0,53.271,23.896,53.271,53.272C446.161,391.292,422.275,415.189,392.89,415.189z"/>
	<path d="M392.89,325.15c-20.263,0-36.769,16.498-36.769,36.767c0,20.269,16.506,36.767,36.769,36.767
		c20.26,0,36.765-16.498,36.765-36.767C429.654,341.648,413.149,325.15,392.89,325.15z"/>
</g>
<g>
</g>
<g>
</g>
<g>
</g>
<g>
</g>
<g>
</g>
<g>
</g>
<g>
</g>
<g>
</g>
<g>
</g>
<g>
</g>
<g>
</g>
<g>
</g>
<g>
</g>
<g>
</g>
<g>
</g>
</svg>
