<?xml version="1.0" encoding="iso-8859-1"?>
<!-- Generator: Adobe Illustrator 18.0.0, SVG Export Plug-In . SVG Version: 6.00 Build 0)  -->
<!DOCTYPE svg PUBLIC "-//W3C//DTD SVG 1.1//EN" "http://www.w3.org/Graphics/SVG/1.1/DTD/svg11.dtd">
<svg version="1.1" id="Capa_1" xmlns="http://www.w3.org/2000/svg" xmlns:xlink="http://www.w3.org/1999/xlink" x="0px" y="0px"
	 viewBox="0 0 493.941 493.941" style="enable-background:new 0 0 493.941 493.941;" xml:space="preserve">
<path d="M426.431,147.433c-26.541-7.943-53.949,0.869-71.418,20.113L139.683,66.911c2.75-28.445-14.813-55.813-43.246-64.331
	C64.11-7.089,30.085,11.258,20.401,43.571c-9.668,32.307,8.678,66.354,40.99,76.021c22.377,6.713,45.373-0.23,60.744-15.727
	l215.602,100.755c-1.453,10.331-0.77,20.608,2.207,30.155l-127.992,87.361c-11.314-10.875-24.807-19.321-40.26-23.948
	c-9.361-2.805-19.031-4.226-28.719-4.226c-43.787,0-83.145,29.324-95.725,71.299c-7.652,25.584-4.904,52.618,7.766,76.125
	c12.674,23.508,33.74,40.674,59.311,48.326c9.361,2.807,19.029,4.228,28.732,4.228c43.787,0,83.15-29.324,95.711-71.306
	c6.678-22.31,5.43-45.731-3.404-66.945l127.721-87.176c6.762,5.4,14.592,9.707,23.397,12.344
	c36.85,11.043,75.637-9.886,86.693-46.738C484.204,197.276,463.3,158.476,426.431,147.433z M207.413,413.246
	c-8.455,28.245-34.922,47.966-64.355,47.966c-6.523,0-13.023-0.958-19.342-2.853c-17.207-5.145-31.369-16.69-39.885-32.503
	c-8.52-15.806-10.387-33.994-5.229-51.197c8.457-28.238,34.938-47.966,64.371-47.966c6.506,0,13.01,0.958,19.322,2.851
	c17.213,5.154,31.375,16.7,39.889,32.506C210.72,377.855,212.573,396.044,207.413,413.246z"/>
<g>
</g>
<g>
</g>
<g>
</g>
<g>
</g>
<g>
</g>
<g>
</g>
<g>
</g>
<g>
</g>
<g>
</g>
<g>
</g>
<g>
</g>
<g>
</g>
<g>
</g>
<g>
</g>
<g>
</g>
</svg>
